<?xml version="1.0" encoding="UTF-8"?>
<!-- Created with Inkscape (http://www.inkscape.org/) -->
<svg width="140mm" height="140mm" version="1.1" viewBox="0 0 140 140" xmlns="http://www.w3.org/2000/svg" xmlns:cc="http://creativecommons.org/ns#" xmlns:dc="http://purl.org/dc/elements/1.1/" xmlns:rdf="http://www.w3.org/1999/02/22-rdf-syntax-ns#">
 <metadata>
  <rdf:RDF>
   <cc:Work rdf:about="">
    <dc:format>image/svg+xml</dc:format>
    <dc:type rdf:resource="http://purl.org/dc/dcmitype/StillImage"/>
    <dc:title/>
   </cc:Work>
  </rdf:RDF>
 </metadata>
 <g transform="translate(-35.1 -85.9)">
  <rect x="35.1" y="85.9" width="140" height="140" rx="1.86" ry="2.53" fill-opacity="0" style="paint-order:normal"/>
  <path transform="translate(-2 .0949)" d="m107 208c-12.8-0.474-37.9-0.358-38.2-1.98-0.333-2.14-7.36e-4 -4.3 0.893-5.81 1.79-3.02 4.12-2.01 6.3-2.98 5.74-2.55 18-4.51 16.5-14.4-3.69-25.8 0.296-44.1-2.93-48-1.37-1.66-0.734-2.02-2.02-3.38-1.97-1.24-0.621-2.45 1.65-3.59 2.52-0.909 1.73-5.23 0.0782-5.1-1.7 0.135-1.64-2.32-0.335-2.55 0.438-0.0786 1.01-1.94 1.04-4.45 0.0287-2.51-1.06-4.24-2.81-6.89-1.28-1.94-2.16-4.59-2.16-4.59-0.85-1.8-0.343-7.64-0.343-7.64 2.18-0.421 8.62-0.913 9.73-1.54 1.85-0.481 3.19-1.29 5.85-0.935 1.42 0.0722 3.25 0.295 3.25 0.296 0 0 1.27 1.68 1.99 1.14 0.571-0.428 0.0113-2.14 0.0113-2.14-0.893-9.73e-4 -1.19-0.0018-2.09-0.0027 0 0-1.28-1.14-1.28-1.46 8e-3 -0.267 1.32-0.687 1.32-0.687l2.15-0.0332 0.0839-1.65s0.879-0.568 1.25-0.605c0.366 0.0362 1.25 0.605 1.25 0.605l0.0839 1.65 2.15 0.0332s1.31 0.42 1.32 0.687c8e-3 0.326-1.28 1.46-1.28 1.46-0.893 9e-4 -1.19 0.0017-2.09 0.0027 0 0-0.56 1.71 0.0113 2.14 0.715 0.536 1.99-1.14 1.99-1.14-5.4e-4 -6.48e-4 1.83-0.224 3.25-0.296 2.66-0.354 4 0.454 5.85 0.935 1.11 0.63 7.55 1.12 9.73 1.54 0 0 0.507 5.85-0.343 7.64 0 0-0.876 2.65-2.16 4.59-1.75 2.65-2.84 4.38-2.81 6.89 0.0287 2.51 0.605 4.37 1.04 4.45 1.3 0.234 1.37 2.69-0.335 2.55-1.65-0.131-2.45 4.19 0.0782 5.1 2.27 1.13 3.62 2.35 1.65 3.59-1.29 1.36-0.657 1.72-2.02 3.38-3.22 3.91 0.76 22.2-2.93 48-1.41 9.87 10.8 11.8 16.5 14.4 2.17 0.967 4.51-0.0412 6.3 2.98 0.894 1.51 1.23 3.67 0.893 5.81-0.253 1.62-25.3 1.51-38.2 1.98z" fill="#b44646" stroke="#fff" stroke-linecap="round" stroke-linejoin="round" stroke-width=".665" style="paint-order:markers stroke fill"/>
 </g>
</svg>
