<?xml version="1.0" encoding="UTF-8"?>
<!-- Created with Inkscape (http://www.inkscape.org/) -->
<svg width="140mm" height="140mm" version="1.1" viewBox="0 0 140 140" xmlns="http://www.w3.org/2000/svg" xmlns:cc="http://creativecommons.org/ns#" xmlns:dc="http://purl.org/dc/elements/1.1/" xmlns:rdf="http://www.w3.org/1999/02/22-rdf-syntax-ns#">
 <metadata>
  <rdf:RDF>
   <cc:Work rdf:about="">
    <dc:format>image/svg+xml</dc:format>
    <dc:type rdf:resource="http://purl.org/dc/dcmitype/StillImage"/>
    <dc:title/>
   </cc:Work>
  </rdf:RDF>
 </metadata>
 <g transform="translate(-35.1 -85.9)">
  <rect x="35.1" y="85.9" width="140" height="140" rx="1.86" ry="2.53" fill-opacity="0" style="paint-order:normal"/>
  <path transform="translate(-2 .0949)" d="m107 132 5.66 0.599s8.92 0.899 11.1 7.38c0 0 2.07 4.87-4.23 9.95-4.73 3.82 3.69 2.71-0.187 6.19-4.32 3.88-4.73 18.5-2.37 27.8 2.44 9.67 15 11.1 20.7 13.6 2.17 0.967 4.51-0.0412 6.3 2.98 0.894 1.51 1.23 3.67 0.893 5.81-0.253 1.62-25.3 1.51-38.2 1.98-12.8-0.474-37.9-0.358-38.2-1.98-0.333-2.14-7.36e-4 -4.3 0.893-5.81 1.79-3.02 4.12-2.01 6.3-2.98 5.74-2.55 18.3-3.96 20.7-13.6 2.36-9.35 1.95-24-2.37-27.8-3.88-3.48 4.55-2.36-0.187-6.19-6.3-5.09-4.23-9.95-4.23-9.95 2.19-6.48 11.1-7.38 11.1-7.38l5.66-0.599" fill="#4682b4" stroke="#fff" stroke-linecap="round" stroke-linejoin="round" stroke-width=".465" style="paint-order:markers stroke fill"/>
 </g>
</svg>
