<?xml version="1.0" encoding="UTF-8"?>
<!-- Created with Inkscape (http://www.inkscape.org/) -->
<svg width="140mm" height="140mm" version="1.1" viewBox="0 0 140 140" xmlns="http://www.w3.org/2000/svg" xmlns:cc="http://creativecommons.org/ns#" xmlns:dc="http://purl.org/dc/elements/1.1/" xmlns:rdf="http://www.w3.org/1999/02/22-rdf-syntax-ns#">
 <metadata>
  <rdf:RDF>
   <cc:Work rdf:about="">
    <dc:format>image/svg+xml</dc:format>
    <dc:type rdf:resource="http://purl.org/dc/dcmitype/StillImage"/>
    <dc:title/>
   </cc:Work>
  </rdf:RDF>
 </metadata>
 <g transform="translate(-35.1 -85.9)">
  <rect x="35.1" y="85.9" width="140" height="140" rx="1.86" ry="2.53" fill-opacity="0" style="paint-order:normal"/>
  <path transform="translate(-2 .0949)" d="m107 208c-12.8-0.474-37.9-0.358-38.2-1.98-0.333-2.14-7.36e-4 -4.3 0.893-5.81 1.79-3.02 4.12-2.01 6.3-2.98 5.74-2.55 18-4.51 16.5-14.4-3.69-25.8 5.98-48.8 1.04-49.9-2.81-0.642-5.99-1.6-5.99-1.6-1.97-1.24-0.621-2.34 1.65-3.47 0.777-1.66 1.73-5.23 0.0782-5.1-1.7 0.135-1.64-2.32-0.335-2.55 0.876-0.157-1.56-5.97-4.03-11.8-2.47-5.85-4.99-5.23-4.26-5.56 2.55-0.881 3.89 1.09 8.05-0.188 1.23-0.402 2.18-2.59 3.24-2.17 1.18 0.468 3.27 1.18 3.79 1.21 1.84 0.283 2.53-1.87 4.56-1.87 1.65-0.0472 3.49-0.768 3.49-0.768s2.61 0.0501 1.52-0.988c-1.77-1.67 0.956-3.42 1.64-3.1 0.689-0.314 3.41 1.43 1.64 3.1-1.09 1.04 1.52 0.988 1.52 0.988s1.83 0.721 3.49 0.768c2.03 0 2.72 2.15 4.56 1.87 0.521-0.0272 2.61-0.74 3.79-1.21 1.06-0.421 2.02 1.77 3.24 2.17 4.16 1.28 5.5-0.693 8.05 0.188 0.726 0.331-1.79-0.294-4.26 5.56-2.47 5.85-4.91 11.7-4.03 11.8 1.3 0.234 1.37 2.69-0.335 2.55-1.65-0.131-0.698 3.43 0.0782 5.1 2.27 1.13 3.62 2.23 1.65 3.47 0 0-3.18 0.962-5.99 1.6-4.94 1.13 4.73 24.1 1.04 49.9-1.41 9.87 10.8 11.8 16.5 14.4 2.17 0.967 4.51-0.0412 6.3 2.98 0.894 1.51 1.23 3.67 0.893 5.81-0.253 1.62-25.3 1.51-38.2 1.98z" fill="#4682b4" stroke="#fff" stroke-linecap="round" stroke-linejoin="round" stroke-width=".465" style="paint-order:markers stroke fill"/>
 </g>
</svg>
