<?xml version="1.0" encoding="UTF-8"?>
<!-- Created with Inkscape (http://www.inkscape.org/) -->
<svg width="140mm" height="140mm" version="1.1" viewBox="0 0 140 140" xmlns="http://www.w3.org/2000/svg" xmlns:cc="http://creativecommons.org/ns#" xmlns:dc="http://purl.org/dc/elements/1.1/" xmlns:rdf="http://www.w3.org/1999/02/22-rdf-syntax-ns#">
 <metadata>
  <rdf:RDF>
   <cc:Work rdf:about="">
    <dc:format>image/svg+xml</dc:format>
    <dc:type rdf:resource="http://purl.org/dc/dcmitype/StillImage"/>
    <dc:title/>
   </cc:Work>
  </rdf:RDF>
 </metadata>
 <g transform="translate(-35.1 -85.9)">
  <rect x="35.1" y="85.9" width="140" height="140" rx="1.86" ry="2.53" fill-opacity="0" style="paint-order:normal"/>
  <path transform="translate(-2 .0949)" d="m111 104 0.658 5.63 3.87 0.15 2.07-5.75 8.65 0.202 1.19 20.9c-0.378 3.97-4.1 5.83-4.1 5.83s6.23 2.18 3.22 5.81c-3.24 3.9 1.32 21.3-2.37 47.1-1.41 9.87 8.17 11.1 13.9 13.6 2.17 0.967 4.51-0.0412 6.3 2.98 0.894 1.51 1.23 3.67 0.893 5.81-0.253 1.62-25.3 1.51-38.2 1.98-12.8-0.474-37.9-0.358-38.2-1.98-0.333-2.14-7.36e-4 -4.3 0.893-5.81 1.79-3.02 4.12-2.01 6.3-2.98 5.74-2.55 15.3-3.76 13.9-13.6-3.69-25.8 0.867-43.2-2.37-47.1-3.02-3.63 3.22-5.81 3.22-5.81s-3.72-1.86-4.1-5.83l1.19-20.9 8.65-0.202 2.07 5.75 3.87-0.15 0.658-5.63" fill="#b44646" stroke="#fff" stroke-linecap="round" stroke-linejoin="round" stroke-width=".465" style="paint-order:markers stroke fill"/>
 </g>
</svg>
